<?xml version="1.0" encoding="utf-8"?>
<!-- Generator: Adobe Illustrator 23.0.0, SVG Export Plug-In . SVG Version: 6.00 Build 0)  -->
<svg version="1.1" id="Layer_1" xmlns="http://www.w3.org/2000/svg" xmlns:xlink="http://www.w3.org/1999/xlink" x="0px" y="0px"
	 viewBox="0 0 172.37 34.17" style="enable-background:new 0 0 172.37 34.17;" xml:space="preserve">
<style type="text/css">
	.st0{fill:url(#SVGID_1_);}
	.st1{fill:url(#SVGID_2_);}
	.st2{fill:url(#SVGID_3_);}
	.st3{fill:url(#SVGID_4_);}
	.st4{fill:url(#SVGID_5_);}
	.st5{fill:url(#SVGID_6_);}
	.st6{fill:#9B9C9D;}
	.st7{fill:#DEDEE0;}
	.st8{fill:url(#SVGID_7_);}
	.st9{fill:url(#SVGID_8_);}
	.st10{fill:url(#SVGID_9_);}
	.st11{fill:url(#SVGID_10_);}
	.st12{fill:url(#SVGID_11_);}
	.st13{fill:#E8E8E8;}
	.st14{fill:url(#SVGID_12_);}
	.st15{fill:url(#SVGID_13_);}
	.st16{fill:url(#SVGID_14_);}
	.st17{fill:url(#SVGID_15_);}
	.st18{fill:url(#SVGID_16_);}
	.st19{fill:url(#SVGID_17_);}
	.st20{fill:url(#SVGID_18_);}
	.st21{fill:url(#SVGID_19_);}
	.st22{fill:url(#SVGID_20_);}
	.st23{fill:url(#SVGID_21_);}
	.st24{fill:url(#SVGID_22_);}
	.st25{fill:url(#SVGID_23_);}
	.st26{fill:url(#SVGID_24_);}
	.st27{fill:url(#SVGID_25_);}
	.st28{fill:url(#SVGID_26_);}
	.st29{fill:url(#SVGID_27_);}
	.st30{fill:url(#SVGID_28_);}
	.st31{fill:url(#SVGID_29_);}
	.st32{fill:url(#SVGID_30_);}
	.st33{fill:url(#SVGID_31_);}
	.st34{fill:url(#SVGID_32_);}
	.st35{fill:url(#SVGID_33_);}
	.st36{fill:url(#SVGID_34_);}
	.st37{fill:url(#SVGID_35_);}
	.st38{fill:url(#SVGID_36_);}
	.st39{fill:url(#SVGID_37_);}
	.st40{fill:url(#SVGID_38_);}
	.st41{fill:#003596;}
	.st42{fill:#003595;}
</style>
<g>
	<g>
		<g>
			<radialGradient id="SVGID_1_" cx="18.4322" cy="11.3804" r="11.9531" gradientUnits="userSpaceOnUse">
				<stop  offset="0" style="stop-color:#000000"/>
				<stop  offset="0.1036" style="stop-color:#000B20"/>
				<stop  offset="0.2315" style="stop-color:#001741"/>
				<stop  offset="0.3382" style="stop-color:#001E55"/>
				<stop  offset="0.4101" style="stop-color:#00215C"/>
				<stop  offset="1" style="stop-color:#000000"/>
			</radialGradient>
			<path class="st0" d="M31.52,11.57c-2.13-0.05-6.11,0.28-9.36-0.41c-0.04-0.01-0.11-0.07-0.15-0.08
				c-0.76,0.27-1.52,0.56-2.34,0.97c-1.17,0.58-2.88,0.93-4.72,1.03c2.09,0.49,4.43,1.06,7.01,1.44c9.85,1.47,12.51,0.62,12.8,0.51
				c-0.2-0.43-0.46-0.86-0.79-1.25C33.23,12.88,32.42,12.14,31.52,11.57z"/>
			<radialGradient id="SVGID_2_" cx="18.452" cy="11.4199" r="11.9524" gradientUnits="userSpaceOnUse">
				<stop  offset="0" style="stop-color:#000000"/>
				<stop  offset="0.1036" style="stop-color:#000B20"/>
				<stop  offset="0.2315" style="stop-color:#001741"/>
				<stop  offset="0.3382" style="stop-color:#001E55"/>
				<stop  offset="0.4101" style="stop-color:#00215C"/>
				<stop  offset="1" style="stop-color:#000000"/>
			</radialGradient>
			<path class="st1" d="M5.82,10.73c0.01,0,0.02,0.01,0.03,0.01C4.88,9.93,4.34,8.88,4.5,7.56c-2.22,0.3-2.46,1.28-2.48,1.57
				c0,0.03,0,0.03,0,0.08c0,0,0.05,0.75,0.13,0.83c0.03,0.16,0.24,0.87,0.52,1.27c0.01-1.01,0.99-1.07,2.87-0.65
				C5.13,10.24,4.84,9.75,4.68,9.2C4.91,9.78,5.3,10.29,5.82,10.73z"/>
			<radialGradient id="SVGID_3_" cx="-3.3788" cy="15.8062" r="32.7924" gradientUnits="userSpaceOnUse">
				<stop  offset="5.617980e-03" style="stop-color:#00215C"/>
				<stop  offset="0.4382" style="stop-color:#00215C"/>
				<stop  offset="1" style="stop-color:#000000"/>
			</radialGradient>
			<path class="st2" d="M31.11,23.84c-0.1-0.33-0.23-0.64-0.42-0.91c-2.04-2.93-7.37-3.04-10.49-2.46
				c-0.74,0.14-1.48,0.27-2.22,0.37c0.04,0.01,0.09,0.01,0.13,0.02c0.46,0.06,0.93,0.12,1.4,0.17c0.28,0.03,0.55,0.06,0.84,0.08
				c10.49,0.85,9.22,8.63,9.22,8.63c0.07-0.01,0.21-0.15,0.39-0.39C30.86,27.82,31.68,25.55,31.11,23.84z M21.05,16.44
				c-0.14-0.05-0.28-0.11-0.41-0.16c-0.08-0.03-0.16-0.06-0.24-0.09c-9.38-3.58-14.42-4.24-17.11-3.99
				c-0.11,0.01-0.22,0.02-0.33,0.04c0,0-0.01,0-0.01,0c0.12,0.16,0.25,0.32,0.38,0.46c0.13,0.14,0.25,0.28,0.39,0.42
				c3.98,4.01,11.51,5.13,16.73,3.5C20.64,16.56,20.84,16.5,21.05,16.44z M1.41,12.63c-0.01,0.01-0.03,0.01-0.04,0.02
				c-0.04,0.02-0.08,0.04-0.13,0.06c-0.84,0.41-1.01,0.92-1.03,0.99c-0.1,0.4,0.01,0.39,0.15,0.89c0.07,0.25,0.51,1.39,0.51,1.34
				c-0.01-0.13,0-0.25,0.02-0.34c0.12-0.48,0.69-0.4,1.68,0.01c0.22,0.09,0.46,0.2,0.72,0.31c0.05,0.02,0.09,0.04,0.14,0.07
				c-0.08-0.08-0.16-0.16-0.24-0.25C2.16,14.64,1.63,13.58,1.41,12.63z"/>
			<radialGradient id="SVGID_4_" cx="616.7507" cy="410.4785" r="1161.7289" gradientUnits="userSpaceOnUse">
				<stop  offset="5.617980e-03" style="stop-color:#000000"/>
				<stop  offset="0.0993" style="stop-color:#000919"/>
				<stop  offset="0.2454" style="stop-color:#00143A"/>
				<stop  offset="0.3673" style="stop-color:#001B4E"/>
				<stop  offset="0.4494" style="stop-color:#001E55"/>
				<stop  offset="1" style="stop-color:#000000"/>
			</radialGradient>
			<path class="st3" d="M23.74,29.12c-0.87-0.57-1.72-0.76-2.63-0.78c2.43,2.98,1.81,4.93,1.69,5.46c-0.04,0.12-0.07,0.23-0.03,0.17
				c0.02-0.03,0.04-0.05,0.07-0.09c0.15-0.17,0.32-0.38,0.55-0.72C24.33,31.79,25.09,30,23.74,29.12z M0.02,20.11
				c0,0.01,0,0.01,0,0.01c0,0.01,0,0.01,0,0.01s0.16,0.52,0.36,1.05c0.27,0.73,0.6,1.45,0.66,0.8c0.01-0.12,0.01-0.28,0-0.5
				c-0.03-0.65,0.3-1.1,0.91-1.36c-0.27-0.46-0.53-0.94-0.76-1.44C0.28,19.26,0.05,19.97,0.02,20.11z M20.47,23.97
				c-0.13-0.08-0.27-0.15-0.4-0.22c-1.55-0.86-2.98-1.61-4.3-2.25c-0.27-0.13-0.54-0.26-0.8-0.38c-0.02-0.01-0.04-0.02-0.07-0.03
				c-1.07,0.01-2.14-0.08-3.22-0.3c-0.32-0.06-0.62-0.14-0.92-0.22c-1.56-0.44-2.98-1.1-4.28-1.97c-0.25-0.17-0.49-0.35-0.73-0.53
				c-0.01,0-0.02,0-0.02,0c-0.23-0.03-0.46-0.05-0.67-0.07c-1.1-0.08-1.97,0-2.65,0.18c-0.08,0.02-0.16,0.04-0.23,0.07
				c-0.03,0.01-0.06,0.02-0.09,0.03c0.38,0.56,0.82,1.08,1.32,1.58c0.05,0,0.09,0,0.14,0c0.13,0,0.26,0,0.4,0.01
				c2.99,0.11,7.82,1.75,12.28,4.47c0.17,0.11,0.34,0.21,0.51,0.32c0,0,0,0,0,0c0.69-0.07,1.38-0.19,2.09-0.34
				c0.39-0.09,0.84-0.15,1.31-0.19c0.05,0,0.09-0.01,0.14-0.01c0.05,0,0.11-0.01,0.16-0.01c0.06,0,0.12-0.01,0.19-0.01c0,0,0,0,0,0
				C20.57,24.04,20.52,24.01,20.47,23.97z"/>
		</g>
		<g>
			
				<linearGradient id="SVGID_5_" gradientUnits="userSpaceOnUse" x1="-309.3397" y1="417.7375" x2="-309.1709" y2="417.7375" gradientTransform="matrix(-381.0519 17.0161 -13.6446 -374.0157 -112129.9922 161519.9844)">
				<stop  offset="0" style="stop-color:#909393"/>
				<stop  offset="0.0169" style="stop-color:#909393"/>
				<stop  offset="0.2191" style="stop-color:#D4D6D9"/>
				<stop  offset="0.2344" style="stop-color:#C6C8CB"/>
				<stop  offset="0.2632" style="stop-color:#A3A5A7"/>
				<stop  offset="0.3023" style="stop-color:#686B6D"/>
				<stop  offset="0.3498" style="stop-color:#191C1D"/>
				<stop  offset="0.3539" style="stop-color:#121516"/>
				<stop  offset="0.4551" style="stop-color:#D4D6D9"/>
				<stop  offset="0.5071" style="stop-color:#E1E2E4"/>
				<stop  offset="0.5618" style="stop-color:#F3F3F4"/>
				<stop  offset="0.6014" style="stop-color:#E5E6E7"/>
				<stop  offset="0.6758" style="stop-color:#C1C2C3"/>
				<stop  offset="0.777" style="stop-color:#87898A"/>
				<stop  offset="0.8997" style="stop-color:#383B3C"/>
				<stop  offset="0.9551" style="stop-color:#121516"/>
				<stop  offset="1" style="stop-color:#121516"/>
			</linearGradient>
			<path class="st4" d="M17.14,31.1c-6.18,0-11.81-4.19-13.37-10.46C1.93,13.26,6.44,5.78,13.82,3.94c1.12-0.28,2.24-0.41,3.34-0.41
				c6.18,0,11.81,4.19,13.36,10.46c0.44,1.79,0.52,3.59,0.27,5.3c0.14-0.13,0.28-0.26,0.44-0.38l0,0l0,0
				c-0.82,6-5.37,10.73-11.14,11.87C19.1,31,18.11,31.1,17.14,31.1L17.14,31.1z M17.58,2.97c-1.17,0-2.36,0.14-3.55,0.44
				C6.32,5.32,1.59,13,3.47,20.55c1.59,6.39,7.4,10.64,13.81,10.64c1.17,0,2.36-0.14,3.55-0.44c7.71-1.92,12.44-9.59,10.56-17.15
				C29.8,7.22,23.99,2.97,17.58,2.97L17.58,2.97z"/>
			
				<radialGradient id="SVGID_6_" cx="-307.2585" cy="416.9091" r="0.1687" gradientTransform="matrix(-119.0658 29.5947 -29.5947 -119.0658 -24226.3789 58746.3438)" gradientUnits="userSpaceOnUse">
				<stop  offset="0" style="stop-color:#FFFFFF"/>
				<stop  offset="0.2191" style="stop-color:#FFFFFF"/>
				<stop  offset="0.2884" style="stop-color:#F2F2F2"/>
				<stop  offset="0.4179" style="stop-color:#CECECE"/>
				<stop  offset="0.5923" style="stop-color:#959595"/>
				<stop  offset="0.6798" style="stop-color:#767676"/>
				<stop  offset="1" style="stop-color:#767676"/>
			</radialGradient>
			<path class="st5" d="M10.53,6.65c0.13-0.15,2.5-2.81,7.03-2.81c0.22,0,0.45,0.01,0.68,0.02c4.22,0.24,6.35,1.99,7.26,3.51
				c1.4,1.14,2.22,2.57,2.15,4.09c-0.04,0.8-0.31,1.55-0.78,2.23c1.45,1.71,1.61,5.36,1.57,6.32c-1.63,2.02-6.09,2.37-6.09,2.37
				l-0.5-1.26l-0.19,0.18c0,0-1.2,1.1-5.55,1.1c-0.03,0-0.07,0-0.11,0c-5.73-0.2-8.67-3.23-8.96-3.74c0.13-2.13,1.26-3.85,2.15-4.88
				c-0.83-0.96-1.28-2.06-1.23-3.21C8.03,9.03,8.99,7.66,10.53,6.65L10.53,6.65z M17.16,3.53c-1.1,0-2.22,0.13-3.34,0.41
				C6.44,5.78,1.93,13.26,3.77,20.64c1.56,6.27,7.18,10.46,13.37,10.46c0.98,0,1.96-0.1,2.95-0.32c-0.87,0.17-1.76,0.26-2.67,0.26
				c-0.21,0-0.43,0-0.64-0.01C9.39,30.69,3.61,24.62,3.48,17.28c0.34,0.35,0.67,0.74,1,1.15c0-0.02,0-0.05,0-0.07
				c0,0.02,0,0.05,0.01,0.07c2.73,3.4,5.17,8.25,12.66,8.6c0.42,0.02,0.83,0.03,1.22,0.03c7.58,0,9.12-3.55,11.19-6.33
				c0.35-1.3,0.49-2.64,0.42-3.97c0.1,1.26,0.01,2.53-0.27,3.77c0.33-0.44,0.69-0.85,1.09-1.23c0.25-1.72,0.18-3.51-0.27-5.3
				C28.96,7.72,23.34,3.53,17.16,3.53L17.16,3.53z"/>
			<path class="st6" d="M4.48,18.36c0.24,3.21,1.68,6.33,4.29,8.63c5.29,4.67,13.37,4.16,18.04-1.14c2.3-2.61,3.33-5.88,3.17-9.1
				c0.25,3.31-0.78,6.73-3.15,9.42c-4.67,5.29-12.75,5.8-18.04,1.13C6.09,24.93,4.64,21.68,4.48,18.36L4.48,18.36z"/>
			<path class="st7" d="M31.23,18.92c-0.15,0.12-0.3,0.25-0.44,0.38c-0.78,5.38-4.72,10-10.32,11.4c-0.13,0.03-0.25,0.06-0.38,0.09
				C25.85,29.65,30.41,24.92,31.23,18.92L31.23,18.92z"/>
			<radialGradient id="SVGID_7_" cx="17.5823" cy="29.6949" r="25.1031" gradientUnits="userSpaceOnUse">
				<stop  offset="0.1236" style="stop-color:#E4E4E4"/>
				<stop  offset="0.6067" style="stop-color:#A7AAAA"/>
				<stop  offset="0.9663" style="stop-color:#EFEEEE"/>
			</radialGradient>
			<path class="st8" d="M4.48,18.43c0.26,3.18,1.7,6.28,4.28,8.56c2.43,2.14,5.44,3.19,8.45,3.19c3.54,0,7.07-1.46,9.59-4.33
				c1.35-1.53,2.26-3.29,2.75-5.13c-2.07,2.78-3.61,6.33-11.19,6.33c-0.39,0-0.8-0.01-1.22-0.03C9.66,26.68,7.21,21.83,4.48,18.43
				L4.48,18.43z"/>
			<radialGradient id="SVGID_8_" cx="17.7465" cy="30.4784" r="27.3446" gradientUnits="userSpaceOnUse">
				<stop  offset="0.1236" style="stop-color:#E4E4E4"/>
				<stop  offset="0.6067" style="stop-color:#A7AAAA"/>
				<stop  offset="0.9663" style="stop-color:#EFEEEE"/>
			</radialGradient>
			<path class="st9" d="M3.48,17.28C3.61,24.62,9.37,31,17.42,31.04c0.91,0,1.81-0.09,2.67-0.26c0.13-0.03,0.25-0.06,0.38-0.09
				c5.6-1.39,9.54-6.02,10.32-11.4c-0.4,0.38-0.75,0.79-1.09,1.23c-0.45,2.03-1.41,3.97-2.88,5.64c-2.53,2.86-6.05,4.33-9.59,4.33
				c-3,0-6.02-1.05-8.45-3.19c-2.67-2.36-4.12-5.58-4.3-8.88C4.16,18.02,3.82,17.63,3.48,17.28L3.48,17.28z"/>
			
				<radialGradient id="SVGID_9_" cx="-306.7874" cy="415.2919" r="0.1688" gradientTransform="matrix(-87.3516 -3.9893 4.0246 -87.9768 -28452.4883 35329.3359)" gradientUnits="userSpaceOnUse">
				<stop  offset="0" style="stop-color:#C3C4C4"/>
				<stop  offset="0.1236" style="stop-color:#C3C4C4"/>
				<stop  offset="0.6067" style="stop-color:#B9BABB"/>
				<stop  offset="0.9663" style="stop-color:#C9C9C9"/>
				<stop  offset="1" style="stop-color:#A0B5C7"/>
			</radialGradient>
			<path class="st10" d="M4.48,18.43c0.18,3.3,1.63,6.52,4.3,8.88c2.43,2.14,5.44,3.19,8.45,3.19c3.54,0,7.07-1.46,9.59-4.33
				c1.47-1.67,2.43-3.61,2.88-5.64c-0.05,0.06-0.1,0.13-0.15,0.19c-0.49,1.84-1.41,3.6-2.75,5.13c-2.53,2.87-6.05,4.33-9.59,4.33
				c-3,0-6.02-1.05-8.45-3.19C6.18,24.7,4.74,21.61,4.48,18.43C4.48,18.43,4.48,18.43,4.48,18.43L4.48,18.43z"/>
			<radialGradient id="SVGID_10_" cx="18.8436" cy="15.3721" r="21.0981" gradientUnits="userSpaceOnUse">
				<stop  offset="0" style="stop-color:#FFFFFF"/>
				<stop  offset="0.2191" style="stop-color:#FFFFFF"/>
				<stop  offset="0.3031" style="stop-color:#F1F1F1"/>
				<stop  offset="0.462" style="stop-color:#CCCCCC"/>
				<stop  offset="0.6775" style="stop-color:#919191"/>
				<stop  offset="0.6798" style="stop-color:#909090"/>
				<stop  offset="1" style="stop-color:#909090"/>
			</radialGradient>
			<path class="st11" d="M17.59,6.06c-2.93,0-4.29,2.02-4.29,2.02l-2.77-1.42c0,0,0,0,0.01-0.01c-1.54,1.01-2.5,2.38-2.57,3.93
				c-0.05,1.15,0.4,2.25,1.23,3.21c0.6-0.69,1.08-1.08,1.08-1.08s1.79-0.16,3.02-0.16c0.16,0,0.31,0,0.44,0.01c0.04,0,0.1,0,0.17,0
				c0.44,0,1.34-0.04,2.47-0.08c1.13-0.04,2.48-0.08,3.83-0.08c2.47,0,4.92,0.14,5.91,0.66c0.29,0.15,0.54,0.37,0.77,0.63
				c0.47-0.68,0.74-1.43,0.78-2.23c0.07-1.52-0.74-2.95-2.15-4.09C25.7,7.69,25.84,8,25.93,8.29c0.02,0.01-0.03,0.01-0.13,0.01
				c-0.64,0-3.38-0.17-3.38-0.17s-1.39-1.91-4.53-2.06C17.79,6.06,17.69,6.06,17.59,6.06L17.59,6.06z"/>
			
				<radialGradient id="SVGID_11_" cx="-307.2585" cy="416.9091" r="0.1686" gradientTransform="matrix(-119.0658 29.5947 -29.5947 -119.0658 -24226.3789 58746.3438)" gradientUnits="userSpaceOnUse">
				<stop  offset="0" style="stop-color:#FFFFFF"/>
				<stop  offset="0.2191" style="stop-color:#FFFFFF"/>
				<stop  offset="0.3348" style="stop-color:#F1F1F1"/>
				<stop  offset="0.5524" style="stop-color:#CCCCCC"/>
				<stop  offset="0.6798" style="stop-color:#B4B4B4"/>
				<stop  offset="1" style="stop-color:#B4B4B4"/>
			</radialGradient>
			<path class="st12" d="M17.56,3.84c-4.53,0-6.9,2.66-7.03,2.81c1.71-1.13,4.14-1.82,6.84-1.82c0.24,0,0.48,0.01,0.72,0.02
				c3.02,0.14,5.68,1.11,7.42,2.53c-0.92-1.52-3.05-3.26-7.26-3.51C18.01,3.85,17.78,3.84,17.56,3.84L17.56,3.84z"/>
			<path class="st13" d="M17.37,4.83c-2.7,0-5.12,0.69-6.84,1.82c0,0-0.01,0.01-0.01,0.01l2.77,1.42c0,0,1.36-2.02,4.29-2.02
				c0.1,0,0.2,0,0.3,0.01c3.14,0.14,4.53,2.06,4.53,2.06s2.74,0.17,3.38,0.17c0.1,0,0.14,0,0.13-0.01C25.84,8,25.7,7.69,25.51,7.37
				c-1.75-1.42-4.41-2.39-7.42-2.53C17.84,4.83,17.6,4.83,17.37,4.83L17.37,4.83z"/>
			
				<radialGradient id="SVGID_12_" cx="-307.251" cy="416.8937" r="0.1722" gradientTransform="matrix(-119.0658 29.5947 -29.5947 -119.0658 -24226.3789 58746.3438)" gradientUnits="userSpaceOnUse">
				<stop  offset="0" style="stop-color:#FFFFFF"/>
				<stop  offset="0.2191" style="stop-color:#FFFFFF"/>
				<stop  offset="0.3031" style="stop-color:#F1F1F1"/>
				<stop  offset="0.462" style="stop-color:#CCCCCC"/>
				<stop  offset="0.6775" style="stop-color:#919191"/>
				<stop  offset="0.6798" style="stop-color:#909090"/>
				<stop  offset="1" style="stop-color:#909090"/>
			</radialGradient>
			<path class="st14" d="M26.87,13.69c-1.43,2.07-4.67,3.48-8.47,3.52c-0.05,0-0.11,0-0.16,0c-0.06,0-0.11,0-0.17,0
				c-0.18,0-0.36-0.01-0.54-0.02c-3.61-0.16-6.71-1.52-8.34-3.41c-0.89,1.03-2.02,2.74-2.15,4.88c0.29,0.51,3.23,3.54,8.96,3.74
				c0.04,0,0.07,0,0.11,0c4.35,0,5.55-1.1,5.55-1.1l0.19-0.18l0.5,1.26c0,0,4.46-0.35,6.09-2.37
				C28.48,19.05,28.33,15.39,26.87,13.69L26.87,13.69z"/>
			<radialGradient id="SVGID_13_" cx="18.8435" cy="15.3719" r="21.0988" gradientUnits="userSpaceOnUse">
				<stop  offset="0" style="stop-color:#FFFFFF"/>
				<stop  offset="0.2191" style="stop-color:#FFFFFF"/>
				<stop  offset="0.3325" style="stop-color:#F1F1F1"/>
				<stop  offset="0.5461" style="stop-color:#CCCCCC"/>
				<stop  offset="0.6798" style="stop-color:#B2B2B2"/>
				<stop  offset="1" style="stop-color:#909090"/>
			</radialGradient>
			<path class="st15" d="M20.19,12.39c-1.35,0-2.7,0.04-3.83,0.08c-1.13,0.04-2.03,0.08-2.47,0.08c-0.07,0-0.12,0-0.17,0
				c-0.13-0.01-0.28-0.01-0.44-0.01c-1.22,0-3.02,0.16-3.02,0.16s-0.49,0.39-1.08,1.08c1.63,1.89,4.73,3.25,8.34,3.41
				c0.18,0.01,0.36,0.01,0.54,0.02h0.33c3.79-0.04,7.04-1.45,8.47-3.52c-0.22-0.26-0.48-0.48-0.77-0.63
				C25.11,12.53,22.66,12.39,20.19,12.39L20.19,12.39z"/>
		</g>
		<radialGradient id="SVGID_14_" cx="18.4239" cy="11.4194" r="11.9399" gradientUnits="userSpaceOnUse">
			<stop  offset="0" style="stop-color:#000000"/>
			<stop  offset="0.1036" style="stop-color:#000B20"/>
			<stop  offset="0.2315" style="stop-color:#001741"/>
			<stop  offset="0.3382" style="stop-color:#001E55"/>
			<stop  offset="0.4101" style="stop-color:#00215C"/>
			<stop  offset="1" style="stop-color:#000000"/>
		</radialGradient>
		<path class="st16" d="M2.73,11.94c0-0.01,0-0.01,0-0.02c-0.13-0.2-0.24-0.4-0.35-0.61c0,0,0,0.01,0,0.01
			C2.49,11.54,2.6,11.75,2.73,11.94z"/>
		<radialGradient id="SVGID_15_" cx="18.3756" cy="11.4022" r="12.0154" gradientUnits="userSpaceOnUse">
			<stop  offset="0" style="stop-color:#000000"/>
			<stop  offset="0.1036" style="stop-color:#000B20"/>
			<stop  offset="0.2315" style="stop-color:#001741"/>
			<stop  offset="0.3382" style="stop-color:#001E55"/>
			<stop  offset="0.4101" style="stop-color:#00215C"/>
			<stop  offset="1" style="stop-color:#000000"/>
		</radialGradient>
		<path class="st17" d="M31.92,11.57c-0.01,0-0.02,0-0.03,0c0.72,0.53,1.39,1.16,2.01,1.9c0.4,0.47,0.67,1.02,0.88,1.54
			c0,0,0.04-0.02,0.04-0.02c0,0,0.01-0.01,0.02-0.01c-0.22-0.53-0.54-1.05-0.94-1.53C33.29,12.72,32.63,12.09,31.92,11.57z"/>
		<radialGradient id="SVGID_16_" cx="18.4483" cy="11.4142" r="11.9333" gradientUnits="userSpaceOnUse">
			<stop  offset="0" style="stop-color:#000000"/>
			<stop  offset="0.1036" style="stop-color:#000B20"/>
			<stop  offset="0.2315" style="stop-color:#001741"/>
			<stop  offset="0.3382" style="stop-color:#001E55"/>
			<stop  offset="0.4101" style="stop-color:#00215C"/>
			<stop  offset="1" style="stop-color:#000000"/>
		</radialGradient>
		<path class="st18" d="M34.77,14.66c0.02,0.11,0.03,0.22,0.04,0.33C34.88,14.96,34.86,14.84,34.77,14.66z"/>
		<radialGradient id="SVGID_17_" cx="18.4299" cy="11.4189" r="11.9441" gradientUnits="userSpaceOnUse">
			<stop  offset="0" style="stop-color:#000000"/>
			<stop  offset="0.1036" style="stop-color:#000B20"/>
			<stop  offset="0.2315" style="stop-color:#001741"/>
			<stop  offset="0.3382" style="stop-color:#001E55"/>
			<stop  offset="0.4101" style="stop-color:#00215C"/>
			<stop  offset="1" style="stop-color:#000000"/>
		</radialGradient>
		<path class="st19" d="M4.67,9.2c0.15,0.55,0.45,1.03,0.86,1.46c0.09,0.02,0.18,0.04,0.28,0.06C5.29,10.29,4.89,9.78,4.67,9.2z"/>
		<radialGradient id="SVGID_18_" cx="18.432" cy="11.4192" r="11.9481" gradientUnits="userSpaceOnUse">
			<stop  offset="0" style="stop-color:#000000"/>
			<stop  offset="0.1036" style="stop-color:#000B20"/>
			<stop  offset="0.2315" style="stop-color:#001741"/>
			<stop  offset="0.3382" style="stop-color:#001E55"/>
			<stop  offset="0.4101" style="stop-color:#00215C"/>
			<stop  offset="1" style="stop-color:#000000"/>
		</radialGradient>
		<path class="st20" d="M33.88,13.48c-0.62-0.74-1.29-1.38-2.01-1.9c-0.11-0.01-0.22-0.01-0.34-0.01c0.9,0.57,1.71,1.32,2.45,2.2
			c0.33,0.39,0.56,0.83,0.77,1.26c0.02-0.01,0.05-0.02,0.05-0.02C34.57,14.48,34.28,13.96,33.88,13.48z"/>
		<radialGradient id="SVGID_19_" cx="18.2527" cy="11.4227" r="11.8182" gradientUnits="userSpaceOnUse">
			<stop  offset="0" style="stop-color:#000000"/>
			<stop  offset="0.1036" style="stop-color:#000B20"/>
			<stop  offset="0.2315" style="stop-color:#001741"/>
			<stop  offset="0.3382" style="stop-color:#001E55"/>
			<stop  offset="0.4101" style="stop-color:#00215C"/>
			<stop  offset="1" style="stop-color:#000000"/>
		</radialGradient>
		<path class="st21" d="M2.01,9.21c0.02-0.05,0.01-0.07,0-0.08C2,9.18,2.01,9.21,2.01,9.21z"/>
		<radialGradient id="SVGID_20_" cx="18.4227" cy="11.4192" r="11.9389" gradientUnits="userSpaceOnUse">
			<stop  offset="0" style="stop-color:#000000"/>
			<stop  offset="0.1036" style="stop-color:#000B20"/>
			<stop  offset="0.2315" style="stop-color:#001741"/>
			<stop  offset="0.3382" style="stop-color:#001E55"/>
			<stop  offset="0.4101" style="stop-color:#00215C"/>
			<stop  offset="1" style="stop-color:#000000"/>
		</radialGradient>
		<path class="st22" d="M2.38,11.32c0.11,0.21,0.22,0.41,0.35,0.61c-0.01-0.11-0.03-0.22-0.04-0.33c-0.01-0.1-0.02-0.19-0.02-0.28
			c-0.23-0.4-0.4-0.83-0.52-1.28C2.21,10.39,2.3,10.85,2.38,11.32z"/>
		<g>
			<g>
				<radialGradient id="SVGID_21_" cx="9.2938" cy="25.1686" r="13.76" gradientUnits="userSpaceOnUse">
					<stop  offset="0.0714" style="stop-color:#00DEFF"/>
					<stop  offset="0.1609" style="stop-color:#00BCEC"/>
					<stop  offset="0.3266" style="stop-color:#0081CD"/>
					<stop  offset="0.4795" style="stop-color:#0053B5"/>
					<stop  offset="0.6145" style="stop-color:#0032A3"/>
					<stop  offset="0.7267" style="stop-color:#001E98"/>
					<stop  offset="0.8022" style="stop-color:#001794"/>
				</radialGradient>
				<path class="st23" d="M21.23,31.18c-0.54-0.14-1.71,0.47-3.1,0.57c-1.16,0.08-4.95,0.07-9.05-2.02c-2.78-1.42-5.7-3.8-8.05-7.75
					c-0.35-0.59-0.69-1.21-1.01-1.87C0.01,20.1,0.01,20.08,0,20.07c0,0.02,0.01,0.03,0.02,0.05c0.1,0.33,0.22,0.68,0.35,1.06
					C2.3,26.5,7.76,35.64,20.66,33.96c0,0,2.42-1.41,1.53-2.32C22.01,31.47,21.71,31.31,21.23,31.18z"/>
				<g>
					<radialGradient id="SVGID_22_" cx="12.5699" cy="28.2869" r="7.2754" gradientUnits="userSpaceOnUse">
						<stop  offset="0.533" style="stop-color:#00E8FF"/>
						<stop  offset="0.6036" style="stop-color:#00BCE8"/>
						<stop  offset="0.706" style="stop-color:#0081CB"/>
						<stop  offset="0.8005" style="stop-color:#0054B3"/>
						<stop  offset="0.884" style="stop-color:#0032A2"/>
						<stop  offset="0.9533" style="stop-color:#001E98"/>
						<stop  offset="1" style="stop-color:#001794"/>
					</radialGradient>
					<path class="st24" d="M20.91,30.72c-0.54-0.14-1.71,0.47-3.1,0.57c-1.71,0.12-9.14,0.05-14.86-6.63
						c1.93,2.38,4.08,3.99,6.14,5.08c4.09,2.16,7.86,2.25,9.02,2.17c1.38-0.1,2.59-0.8,3.13-0.66c0.34,0.09,0.77,0.29,0.95,0.41
						c0,0,0.01,0,0.01,0C22.11,31.36,21.62,30.91,20.91,30.72z"/>
					<radialGradient id="SVGID_23_" cx="14.4599" cy="12.2967" r="25.8878" gradientUnits="userSpaceOnUse">
						<stop  offset="0.0714" style="stop-color:#00E8FF"/>
						<stop  offset="0.1846" style="stop-color:#11CCF0"/>
						<stop  offset="0.3907" style="stop-color:#2D9ED7"/>
						<stop  offset="0.5744" style="stop-color:#417DC5"/>
						<stop  offset="0.727" style="stop-color:#4E69BA"/>
						<stop  offset="0.8297" style="stop-color:#5262B6"/>
					</radialGradient>
					<path class="st25" d="M22.19,31.65c-0.18-0.18-0.48-0.34-0.96-0.46c-0.54-0.14-1.71,0.47-3.1,0.57
						c-1.16,0.08-4.95,0.07-9.05-2.02c-2.78-1.42-5.7-3.8-8.05-7.75c-0.35-0.59-0.69-1.21-1.01-1.87C0.01,20.1,0.01,20.08,0,20.07
						c0,0.02,0.01,0.03,0.02,0.05c0.1,0.33,0.22,0.68,0.35,1.06C2.3,26.5,7.76,35.64,20.66,33.96
						C20.66,33.96,23.08,32.55,22.19,31.65z"/>
				</g>
			</g>
			<g>
				<radialGradient id="SVGID_24_" cx="13.4261" cy="23.408" r="11.6802" gradientUnits="userSpaceOnUse">
					<stop  offset="0.533" style="stop-color:#00E8FF"/>
					<stop  offset="0.6036" style="stop-color:#00BCE8"/>
					<stop  offset="0.706" style="stop-color:#0081CB"/>
					<stop  offset="0.8005" style="stop-color:#0054B3"/>
					<stop  offset="0.884" style="stop-color:#0032A2"/>
					<stop  offset="0.9533" style="stop-color:#001E98"/>
					<stop  offset="1" style="stop-color:#001794"/>
				</radialGradient>
				<path class="st26" d="M24.4,24.32c-1.08-0.59-2.85-0.71-4.33-0.57c-0.45,0.04-0.87,0.11-1.24,0.19
					c-0.89,0.2-1.76,0.33-2.62,0.39c-4.69,0.35-8.85-1.27-12.28-4.47c-0.09-0.09-0.19-0.18-0.28-0.27
					c-0.47-0.46-0.89-0.93-1.26-1.42c-0.61-0.8-1.1-1.65-1.5-2.58c-0.26-0.6-0.48-1.23-0.68-1.9c-0.01-0.03-0.02-0.06-0.03-0.09
					c-0.02,0.18-0.04,0.34-0.05,0.5c0.01,0.02,0.01,0.04,0.02,0.06c0.09,0.28,0.19,0.56,0.29,0.84c0.14,0.39,0.29,0.77,0.46,1.14
					c0.33,0.74,0.71,1.45,1.18,2.12c0.38,0.56,0.82,1.08,1.32,1.58c0.03,0.03,0.07,0.07,0.1,0.1c3.61,3.5,8.07,5.24,13.1,4.71
					c0.05,0,0.09-0.01,0.13-0.02c0.65-0.07,1.3-0.18,1.96-0.33c0.42-0.09,0.92-0.17,1.44-0.21c0.05,0,0.09-0.01,0.14-0.01
					c0.05,0,0.11-0.01,0.16-0.01c0.06,0,0.12-0.01,0.19-0.01c1.33-0.06,2.77,0.09,3.68,0.59c1.44,0.79,2.14,1.91,2.11,3.36
					c-0.01,0.38-0.06,0.77-0.17,1.2c-0.04,0.16-0.09,0.32-0.14,0.49c-0.42,1.3-1.21,2.45-2.07,3.49l0.04-0.02
					c0.65-0.77,1.36-1.58,1.87-2.47c0.21-0.36,0.38-0.73,0.51-1.12c0.16-0.48,0.24-0.94,0.26-1.39c0-0.06,0.01-0.11,0.01-0.17
					C26.74,26.44,25.89,25.14,24.4,24.32z"/>
				<radialGradient id="SVGID_25_" cx="11.0764" cy="21.2126" r="17.3857" gradientUnits="userSpaceOnUse">
					<stop  offset="0.0714" style="stop-color:#00DEFF"/>
					<stop  offset="0.1609" style="stop-color:#00BCEC"/>
					<stop  offset="0.3266" style="stop-color:#0081CD"/>
					<stop  offset="0.4795" style="stop-color:#0053B5"/>
					<stop  offset="0.6145" style="stop-color:#0032A3"/>
					<stop  offset="0.7267" style="stop-color:#001E98"/>
					<stop  offset="0.8022" style="stop-color:#001794"/>
				</radialGradient>
				<path class="st27" d="M24.39,24.68c-0.94-0.52-2.42-0.67-3.76-0.61c-0.06,0-0.12,0.01-0.18,0.01c-0.05,0-0.11,0.01-0.16,0.01
					c-0.05,0-0.09,0.01-0.14,0.01c-0.48,0.04-0.92,0.11-1.31,0.19c-0.71,0.16-1.41,0.27-2.09,0.34c-0.05,0-0.09,0.01-0.14,0.01
					c-4.98,0.49-9.38-1.23-12.95-4.71c-0.04-0.04-0.07-0.07-0.11-0.11c-0.53-0.52-0.98-1.05-1.38-1.61
					c-0.52-0.72-0.93-1.48-1.29-2.31c-0.19-0.44-0.36-0.89-0.51-1.37c-0.06-0.19-0.13-0.39-0.19-0.59
					c-0.01,0.07-0.01,0.13-0.02,0.19c-0.16,1.55-0.03,2.12,0.63,3.66c0.12,0.29,0.26,0.58,0.39,0.86c0.24,0.49,0.49,0.97,0.76,1.44
					c1.39,2.37,3.21,4.37,5.38,5.88c2.18,1.52,5.47,2.68,8.22,2.73c2.29,0.04,4.02-0.42,5.57-0.39c0.91,0.02,1.76,0.21,2.63,0.78
					c1.35,0.88,0.59,2.67-0.36,4.04c-0.18,0.26-0.37,0.5-0.55,0.72c-0.03,0.04-0.06,0.07-0.09,0.11c0.01,0,0.01,0,0.02-0.01
					c0.47-0.15,0.93-0.32,1.39-0.52c0.7-0.84,1.35-1.75,1.8-2.74c0.12-0.26,0.22-0.52,0.31-0.79c0.13-0.42,0.22-0.82,0.26-1.2
					c0.03-0.24,0.04-0.48,0.03-0.71C26.5,26.59,25.77,25.44,24.39,24.68z"/>
				<radialGradient id="SVGID_26_" cx="14.4559" cy="12.2969" r="25.8895" gradientUnits="userSpaceOnUse">
					<stop  offset="0.0714" style="stop-color:#00E8FF"/>
					<stop  offset="0.1846" style="stop-color:#11CCF0"/>
					<stop  offset="0.3907" style="stop-color:#2D9ED7"/>
					<stop  offset="0.5744" style="stop-color:#417DC5"/>
					<stop  offset="0.727" style="stop-color:#4E69BA"/>
					<stop  offset="0.8297" style="stop-color:#5262B6"/>
				</radialGradient>
				<path class="st28" d="M7.32,26c2.18,1.52,5.47,2.68,8.22,2.73c2.29,0.04,4.02-0.42,5.57-0.39c0.91,0.02,1.76,0.21,2.63,0.78
					c1.35,0.88,0.59,2.67-0.36,4.04c-0.18,0.26-0.37,0.5-0.55,0.72c-0.03,0.04-0.06,0.07-0.09,0.11c0.01,0,0.01,0,0.02-0.01
					c0.47-0.15,0.93-0.32,1.39-0.52c0.7-0.84,1.35-1.75,1.8-2.74c0.12-0.26,0.22-0.52,0.31-0.79c0.13-0.42,0.22-0.82,0.26-1.2
					c0.03-0.24,0.04-0.48,0.03-0.71c-0.05-1.42-0.79-2.57-2.16-3.33c-0.27-0.15-0.58-0.26-0.92-0.36c-1.86,0.34-3.81,0.52-5.81,0.52
					c-0.9,0-1.79-0.04-2.67-0.11c-1.77,0-3.45-0.28-5.05-0.82c-2.8-0.7-5.36-1.76-7.59-3.12C3.68,22.87,5.36,24.64,7.32,26z"/>
			</g>
			<g>
				<radialGradient id="SVGID_27_" cx="17.6742" cy="15.7265" r="12.4746" gradientUnits="userSpaceOnUse">
					<stop  offset="0.533" style="stop-color:#00E8FF"/>
					<stop  offset="0.6036" style="stop-color:#00BCE8"/>
					<stop  offset="0.706" style="stop-color:#0081CB"/>
					<stop  offset="0.8005" style="stop-color:#0054B3"/>
					<stop  offset="0.884" style="stop-color:#0032A2"/>
					<stop  offset="0.9533" style="stop-color:#001E98"/>
					<stop  offset="1" style="stop-color:#001794"/>
				</radialGradient>
				<path class="st29" d="M31.63,17.06c-3.3-2.78-7.38-2.07-11.19-0.89c-0.01,0-0.03,0.01-0.04,0.01
					c-5.22,1.61-12.72,0.48-16.69-3.52c-0.15-0.15-0.29-0.31-0.43-0.47c-0.23-0.28-0.44-0.58-0.61-0.89
					c-0.22-0.4-0.4-0.83-0.52-1.28C2.08,9.76,2.02,9.2,2.02,9.2s0-0.04,0-0.08c0,0-0.12,0.07-0.22,0.21
					c-0.22,0.32-0.53,1.03-0.48,2.05c0.04-1.05,0.38-1.71,0.51-1.84c0.04-0.05,0.06-0.03,0.03,0.06c0.03,0.33,0.1,0.66,0.21,0.98
					c0.02,0.06,0.04,0.12,0.06,0.18c0.01,0.01,0.01,0.03,0.01,0.04c0.02,0.04,0.03,0.09,0.05,0.13c0.06,0.13,0.12,0.27,0.18,0.4
					c0.11,0.21,0.22,0.41,0.35,0.61c0.07,0.11,0.14,0.21,0.22,0.31c0.12,0.16,0.24,0.32,0.37,0.46c0.13,0.14,0.25,0.28,0.39,0.42
					c3.98,4.01,11.51,5.13,16.73,3.5c0.2-0.06,0.41-0.13,0.61-0.19c3.63-1.07,7.45-1.56,10.58,1.07c0.46,0.39,0.84,0.79,1.15,1.19
					c0.02,0.02,0.04,0.05,0.05,0.07c0.02,0.03,0.04,0.06,0.07,0.09c0.87,1.2,1.09,2.45,1.13,3.47
					C34.08,20.87,33.73,18.83,31.63,17.06z"/>
				<radialGradient id="SVGID_28_" cx="16.2293" cy="18.5201" r="12.0459" gradientUnits="userSpaceOnUse">
					<stop  offset="0.533" style="stop-color:#00E8FF"/>
					<stop  offset="0.6036" style="stop-color:#00BCE8"/>
					<stop  offset="0.706" style="stop-color:#0081CB"/>
					<stop  offset="0.8005" style="stop-color:#0054B3"/>
					<stop  offset="0.884" style="stop-color:#0032A2"/>
					<stop  offset="0.9533" style="stop-color:#001E98"/>
					<stop  offset="1" style="stop-color:#001794"/>
				</radialGradient>
				<path class="st30" d="M30.69,22.93c-2.04-2.93-7.37-3.04-10.49-2.46c-0.74,0.14-1.48,0.27-2.22,0.37
					c-1.03,0.14-2.05,0.24-3.09,0.24c-1.07,0.01-2.14-0.08-3.22-0.3c-0.32-0.06-0.62-0.14-0.92-0.22c-1.6-0.43-3-1.1-4.28-1.97
					c-0.25-0.17-0.49-0.35-0.73-0.53c-0.8-0.61-1.56-1.3-2.31-2.07c-0.08-0.08-0.16-0.16-0.24-0.25c-1.03-1.1-1.67-2.14-1.78-3.11
					c-0.09-0.81-0.17-1.54-0.04-2.1c-0.04,0.13-0.07,0.28-0.1,0.43c-0.09,0.49-0.13,1.08-0.03,1.74c0.13,0.88,0.51,1.88,1.33,2.9
					c0.12,0.15,0.25,0.3,0.4,0.46c0.66,0.7,1.35,1.34,2.07,1.93c1.94,1.57,4.13,2.71,6.68,3.23c1.38,0.28,2.72,0.35,4.05,0.28
					c1.24-0.06,2.49-0.24,3.75-0.47c0.21-0.04,0.41-0.07,0.62-0.11c3.12-0.59,8.49-0.37,10.53,2.56c0.62,0.89,0.67,1.96,0.42,3.03
					c0.22-0.82,0.26-1.82,0.02-2.67C31.02,23.51,30.88,23.2,30.69,22.93z"/>
				<radialGradient id="SVGID_29_" cx="14.8774" cy="16.6309" r="20.0723" gradientUnits="userSpaceOnUse">
					<stop  offset="0.0714" style="stop-color:#00DEFF"/>
					<stop  offset="0.1609" style="stop-color:#00BCEC"/>
					<stop  offset="0.3266" style="stop-color:#0081CD"/>
					<stop  offset="0.4795" style="stop-color:#0053B5"/>
					<stop  offset="0.6145" style="stop-color:#0032A3"/>
					<stop  offset="0.7267" style="stop-color:#001E98"/>
					<stop  offset="0.8022" style="stop-color:#001794"/>
				</radialGradient>
				<path class="st31" d="M32.87,18.77c-0.02-0.02-0.04-0.05-0.05-0.07c-0.35-0.47-0.79-0.94-1.35-1.41
					c-3.19-2.69-7.1-2.12-10.79-1.01c-0.13,0.04-0.27,0.08-0.4,0.12c-5.22,1.63-12.75,0.5-16.73-3.5c-0.06-0.06-0.13-0.13-0.19-0.2
					c-0.13-0.15-0.26-0.3-0.38-0.46c-0.07-0.1-0.14-0.2-0.21-0.3c-0.13-0.2-0.25-0.4-0.35-0.62c-0.07-0.13-0.13-0.27-0.18-0.41
					c-0.02-0.04-0.04-0.08-0.05-0.13c-0.01-0.01-0.01-0.03-0.01-0.04c-0.02-0.06-0.04-0.12-0.06-0.18
					c-0.11-0.34-0.12-0.68-0.17-1.04C1.92,9.47,1.96,9.4,1.95,9.32c0,0-0.03,0-0.03,0c0.1-0.31-0.5,0.41-0.63,1.64
					c-0.05,0.49-0.04,1.06,0.1,1.69c0.2,0.93,0.69,1.97,1.66,3c0.09,0.09,0.17,0.18,0.26,0.27c0.76,0.79,1.57,1.5,2.42,2.14
					c0.25,0.18,0.5,0.36,0.76,0.53c1.31,0.86,2.73,1.53,4.28,1.97c0.33,0.09,0.67,0.18,1.02,0.25c1.08,0.22,2.14,0.31,3.19,0.3
					c1.05-0.01,2.1-0.11,3.15-0.26c0.69-0.1,1.38-0.22,2.08-0.35c3.12-0.59,8.49-0.37,10.53,2.56c0.17,0.24,0.29,0.5,0.38,0.77
					c0.57,1.71-0.25,3.98-1.14,5.52c-0.07,0.11-0.2,0.2-0.26,0.3c1.83-1.83,3.32-4.03,4.21-6.51c0.18-0.94,0.2-2.55-1.02-4.27
					C32.91,18.84,32.89,18.81,32.87,18.77z"/>
				<radialGradient id="SVGID_30_" cx="14.1602" cy="12.3181" r="26.0799" gradientUnits="userSpaceOnUse">
					<stop  offset="0.0714" style="stop-color:#00E8FF"/>
					<stop  offset="0.1846" style="stop-color:#11CCF0"/>
					<stop  offset="0.3907" style="stop-color:#2D9ED7"/>
					<stop  offset="0.5744" style="stop-color:#417DC5"/>
					<stop  offset="0.727" style="stop-color:#4E69BA"/>
					<stop  offset="0.8297" style="stop-color:#5262B6"/>
				</radialGradient>
				<path class="st32" d="M33.68,20.34c-1.12,0.74-2.33,1.4-3.62,1.97c0.25,0.23,0.47,0.48,0.66,0.76c0.17,0.24,0.29,0.5,0.38,0.77
					c0.57,1.71-0.18,4.05-1.16,5.53c-0.08,0.11-0.18,0.19-0.24,0.29c1.83-1.83,3.32-4.03,4.21-6.51
					C34.05,22.48,34.1,21.48,33.68,20.34z"/>
				<radialGradient id="SVGID_31_" cx="14.5115" cy="12.4167" r="25.8888" gradientUnits="userSpaceOnUse">
					<stop  offset="0.0385" style="stop-color:#00DEFF"/>
					<stop  offset="0.1981" style="stop-color:#10B3E7"/>
					<stop  offset="0.391" style="stop-color:#2185CE"/>
					<stop  offset="0.5631" style="stop-color:#2D64BB"/>
					<stop  offset="0.706" style="stop-color:#3450B0"/>
					<stop  offset="0.8022" style="stop-color:#3749AC"/>
				</radialGradient>
				<path class="st33" d="M24.81,15.53c-1.37,0.13-2.76,0.46-4.12,0.87c-0.13,0.04-0.27,0.08-0.4,0.12
					c-3.09,0.96-6.99,0.96-10.48-0.03c1.9,0.94,4.2,1.5,6.69,1.5C19.75,17.99,22.69,17.05,24.81,15.53z"/>
			</g>
		</g>
		<radialGradient id="SVGID_32_" cx="18.4326" cy="11.5122" r="11.9444" gradientUnits="userSpaceOnUse">
			<stop  offset="0" style="stop-color:#000000"/>
			<stop  offset="0.0425" style="stop-color:#191C03"/>
			<stop  offset="0.1375" style="stop-color:#4B5709"/>
			<stop  offset="0.2251" style="stop-color:#73840E"/>
			<stop  offset="0.3025" style="stop-color:#90A611"/>
			<stop  offset="0.3668" style="stop-color:#A2BA13"/>
			<stop  offset="0.4101" style="stop-color:#A8C114"/>
			<stop  offset="1" style="stop-color:#000000"/>
		</radialGradient>
		<path class="st34" d="M10.67,8.09c0.8,0.38,1.97,0.76,3.4,0.75C12.81,8.53,11.68,8.28,10.67,8.09z"/>
		<radialGradient id="SVGID_33_" cx="14.8425" cy="4.1306" r="4.3124" gradientUnits="userSpaceOnUse">
			<stop  offset="0.533" style="stop-color:#E7FC24"/>
			<stop  offset="0.5474" style="stop-color:#E4F923"/>
			<stop  offset="0.7363" style="stop-color:#C3DB1B"/>
			<stop  offset="0.8939" style="stop-color:#AFC816"/>
			<stop  offset="1" style="stop-color:#A8C114"/>
		</radialGradient>
		<path class="st35" d="M9.65,6.6c0,0.01,0,0.03,0,0.04c0.02,0.26-0.02,0.48,0.06,0.67c0-0.01,0.05-0.03,0.05-0.03
			c-0.45-1.98,1.36-6.66,8.07-5.97c0.89,0.09,1.89,0.28,2.21,0.87c-0.13-0.83-1.29-1.05-2.31-1.16c-5.99-0.61-8.06,3.05-8.1,5.25
			c0,0,0,0.01,0,0.01c0,0.07,0,0.13,0,0.19C9.64,6.51,9.64,6.56,9.65,6.6z"/>
		<radialGradient id="SVGID_34_" cx="17.2059" cy="4.5548" r="3.8292" gradientUnits="userSpaceOnUse">
			<stop  offset="0.533" style="stop-color:#E7FC24"/>
			<stop  offset="0.5474" style="stop-color:#E4F923"/>
			<stop  offset="0.7363" style="stop-color:#C3DB1B"/>
			<stop  offset="0.8939" style="stop-color:#AFC816"/>
			<stop  offset="1" style="stop-color:#A8C114"/>
		</radialGradient>
		<path class="st36" d="M22.16,2.89c-0.07,0.79-1.39,2.59-4.88,3.37c-1.73,0.38-3.62-0.48-3.89-0.64c-0.34-0.15-0.82-0.62-1.18-0.91
			c0.57,0.57,1.65,2.37,5.17,1.85c1.24-0.18,1.79-0.51,2.41-0.83c0.68-0.25,2.76-2.3,2.35-3.25c0-0.01-0.01-0.02-0.01-0.03
			c0.02,0.09,0.03,0.19,0.03,0.29c0,0.03,0,0.06,0,0.1C22.16,2.86,22.16,2.87,22.16,2.89z"/>
		<radialGradient id="SVGID_35_" cx="19.7566" cy="12.0765" r="10.8681" gradientUnits="userSpaceOnUse">
			<stop  offset="0.5495" style="stop-color:#A8C114"/>
			<stop  offset="0.7225" style="stop-color:#C7DE1C"/>
			<stop  offset="0.8938" style="stop-color:#DEF422"/>
			<stop  offset="1" style="stop-color:#E7FC24"/>
		</radialGradient>
		<path class="st37" d="M34.85,14.97c0.01,0-0.06-0.12-0.08-0.15c-0.22-0.52-0.5-0.88-0.9-1.35c-0.62-0.74-1.29-1.38-2.01-1.9
			c-2.58-1.88-5.88-2.3-10.28-0.62c-0.65,0.25-1.32,0.54-2.01,0.88c-1.38,0.68-3.49,1.04-5.7,1.05c-3.05,0.01-6.29-0.67-8.07-2.17
			c-0.52-0.44-0.91-0.94-1.14-1.53c0.15,0.55,0.45,1.03,0.86,1.46c1.82,1.91,5.88,2.67,9.42,2.49c1.85-0.09,3.55-0.44,4.72-1.02
			c0.83-0.41,1.62-0.74,2.37-1.02c3.97-1.44,7.03-1.12,9.48,0.45c0.9,0.57,1.71,1.32,2.45,2.2c0.33,0.39,0.74,1.03,0.79,1.1
			C34.78,14.88,34.85,14.97,34.85,14.97z"/>
		<linearGradient id="SVGID_36_" gradientUnits="userSpaceOnUse" x1="4.4582" y1="7.4842" x2="34.8596" y2="7.4842">
			<stop  offset="0" style="stop-color:#BCE803"/>
			<stop  offset="1" style="stop-color:#B5DE0F"/>
		</linearGradient>
		<path class="st38" d="M34.86,14.92c0,0,0.01-0.03-0.03-0.14c-0.06-0.09-1.47-5.32-2.98-7.52c-3.04-3.14-7.77-3.82-12.27-0.44
			c-2.03,1.52-3.92,2.02-5.51,2.03c-1.43,0.01-2.61-0.38-3.4-0.75C10.48,8,10.32,7.92,10.18,7.84C10.02,7.75,9.89,7.58,9.8,7.36
			C9.72,7.18,9.67,6.97,9.65,6.73c0-0.01,0-0.03,0-0.04c0-0.04-0.01-0.09-0.01-0.13c0-0.06,0-0.13,0-0.19c0,0,0-0.01,0-0.01
			c0.03-2.2,2.02-5.77,8-5.25c1.25,0.11,2.81,0.42,2.32,1.78c-0.39,1.09-1.42,2.84-4.22,2.9c-1.08,0.02-2.21-0.06-3.44-1.04
			c0.57,0.57,1.26,1.09,1.98,1.32c1.07,0.33,2.19,0.49,3.09,0.26c1.2-0.3,1.74-0.47,2.41-0.83c1.64-0.87,2.38-1.75,2.46-2.54
			c0-0.02,0-0.03,0-0.05c0-0.03,0-0.06,0-0.1c0-0.09-0.01-0.17-0.02-0.26C21.65-0.6,10.09-1.95,5.48,5.18
			c-0.59,0.91-0.9,1.73-0.99,2.47c-0.16,1.32,0.38,2.37,1.35,3.18c1.76,1.46,4.94,2.13,7.95,2.14c2.24,0.01,4.4-0.36,5.79-1.04
			c0.69-0.34,1.35-0.63,1.99-0.87c4.42-1.7,7.74-1.27,10.34,0.63c0.71,0.52,1.37,1.15,1.98,1.88c0.4,0.48,0.97,1.41,0.97,1.41
			L34.86,14.92z"/>
		<g>
			<radialGradient id="SVGID_37_" cx="14.4188" cy="12.4171" r="25.8843" gradientUnits="userSpaceOnUse">
				<stop  offset="0.0385" style="stop-color:#ECFF33"/>
				<stop  offset="0.2833" style="stop-color:#D7F51E"/>
				<stop  offset="0.5931" style="stop-color:#C3EB0A"/>
				<stop  offset="0.8022" style="stop-color:#BCE803"/>
			</radialGradient>
			<path class="st39" d="M4.72,9.39c0.24,0.51,0.61,1.07,1.08,1.47c1.76,1.46,4.94,2.13,7.95,2.14c2.25,0,4.4-0.36,5.79-1.05
				c0.69-0.34,1.35-0.63,1.99-0.87c2.52-0.97,4.69-1.28,6.57-0.99c0.01-0.15,0.02-0.27,0.02-0.42c0-1.91-0.9-3.66-2.42-5.07
				c-1.97,0-4.08,0.69-6.15,2.24c-2.03,1.52-3.92,2.02-5.51,2.03c-1.43,0.01-2.61-0.38-3.4-0.75c-0.18-0.09-0.35-0.17-0.49-0.25
				C9.98,7.77,9.85,7.61,9.76,7.39C9.68,7.21,9.63,7,9.61,6.76c0-0.01,0-0.03,0-0.04c0-0.04-0.01-0.08-0.01-0.13
				c0-0.06,0-0.13,0-0.19c0,0,0-0.01,0-0.01c0.02-1.5,0.96-3.65,3.47-4.69C8.31,2.71,4.82,5.7,4.72,9.39z"/>
			<radialGradient id="SVGID_38_" cx="14.4495" cy="12.3847" r="25.8891" gradientUnits="userSpaceOnUse">
				<stop  offset="0.0385" style="stop-color:#ECFF33"/>
				<stop  offset="0.2833" style="stop-color:#D7F51E"/>
				<stop  offset="0.5931" style="stop-color:#C3EB0A"/>
				<stop  offset="0.8022" style="stop-color:#BCE803"/>
			</radialGradient>
			<path class="st40" d="M19.95,2.89c-0.39,1.09-1.42,2.84-4.22,2.9c-1.08,0.03-2.21-0.06-3.44-1.04c0.57,0.57,1.26,1.09,1.98,1.32
				c1.07,0.33,2.19,0.49,3.09,0.26c1.2-0.3,1.74-0.48,2.41-0.83c1.64-0.87,2.38-1.75,2.46-2.54c0-0.02,0-0.03,0-0.05
				c0-0.03,0-0.06,0-0.1c0-0.09,0-0.18-0.02-0.26c-0.01-0.06-0.03-0.12-0.05-0.18c-0.8-0.32-1.67-0.58-2.57-0.76
				C19.99,1.9,20.17,2.29,19.95,2.89z"/>
		</g>
	</g>
	<g>
		<g>
			<path class="st41" d="M65.12,9.39L59.7,29.25c-0.14,0.41-0.34,0.71-0.59,0.9s-0.67,0.28-1.24,0.28c-0.58,0-1.02-0.12-1.34-0.35
				c-0.32-0.23-0.53-0.51-0.64-0.83l-4.01-14.59l-3.98,14.59c-0.11,0.32-0.33,0.6-0.64,0.83c-0.32,0.23-0.76,0.35-1.34,0.35
				c-0.58,0-0.99-0.09-1.25-0.28c-0.26-0.19-0.45-0.49-0.58-0.9h-0.02L38.64,9.39h3.33l4.01,16.19l3.52-14.27v-0.04
				c0-0.01,0-0.02,0.01-0.02c0.01,0,0.01-0.01,0.01-0.02c0.04-0.13,0.1-0.3,0.17-0.51c0.07-0.21,0.19-0.41,0.36-0.6
				s0.4-0.35,0.7-0.5c0.3-0.14,0.68-0.21,1.16-0.21c0.45,0,0.82,0.07,1.11,0.21c0.29,0.14,0.52,0.31,0.7,0.52
				c0.18,0.2,0.31,0.41,0.39,0.63c0.08,0.22,0.15,0.4,0.19,0.54h-0.02l3.52,14.27l3.98-16.19H65.12z"/>
		</g>
		<g>
			<path class="st42" d="M80.48,21.41c-0.01,0.63-0.07,1.27-0.16,1.92c-0.08,0.56-0.22,1.16-0.41,1.79
				c-0.19,0.63-0.46,1.21-0.82,1.73c-0.31,0.49-0.65,0.91-1.02,1.25c-0.37,0.34-0.74,0.63-1.11,0.87c-0.38,0.24-0.74,0.44-1.1,0.59
				c-0.36,0.16-0.69,0.3-0.99,0.42c-0.33,0.14-0.69,0.24-1.09,0.31c-0.4,0.07-0.81,0.11-1.23,0.13c-0.42,0.02-0.84,0.03-1.26,0.03
				c-0.42,0-0.82,0-1.21,0c-1.84,0-3.36-0.57-4.56-1.7c-1.19-1.12-1.78-2.53-1.78-4.23c0-1.85,0.59-3.29,1.76-4.31
				c1.15-1.02,2.66-1.65,4.56-1.88l5.36-0.67c0.79-0.11,1.31-0.44,1.55-0.98c0.15-0.26,0.22-0.69,0.22-1.29
				c0-0.29-0.02-0.55-0.06-0.8c-0.16-0.75-0.55-1.32-1.15-1.7c-0.83-0.52-2-0.78-3.5-0.78c-0.37,0-0.71,0.02-1.02,0.07
				c-0.31,0.05-0.63,0.11-0.96,0.17c-0.23,0.05-0.51,0.12-0.84,0.19c-0.33,0.08-0.65,0.15-0.96,0.24c-0.35,0.1-0.72,0.19-1.1,0.29
				v-2.99c0.38-0.1,0.75-0.18,1.1-0.27c0.31-0.07,0.63-0.14,0.96-0.21c0.33-0.07,0.61-0.13,0.84-0.17h0.02
				c0.65-0.12,1.33-0.18,2.02-0.18c2.36,0,4.27,0.45,5.75,1.35c1.46,0.9,2.19,2.3,2.19,4.19v0.02V21.41z M77.13,19.87
				c-0.23,0.08-0.43,0.15-0.59,0.2c-0.16,0.05-0.33,0.11-0.51,0.16c-0.18,0.05-0.33,0.1-0.45,0.12c-0.26,0.07-0.59,0.13-0.99,0.19
				c-0.4,0.06-0.76,0.11-1.07,0.15l-2.02,0.27c-0.61,0.08-1.13,0.17-1.55,0.27c-0.42,0.1-0.79,0.23-1.1,0.41
				c-1.05,0.57-1.57,1.51-1.57,2.8c0,0.95,0.36,1.72,1.08,2.29c0.71,0.56,1.55,0.84,2.52,0.84c1.2,0,2.35-0.27,3.46-0.82
				c1.87-0.93,2.8-2.42,2.8-4.48L77.13,19.87z"/>
		</g>
		<g>
			<path class="st42" d="M92.04,29.25c-0.11,0.32-0.32,0.6-0.63,0.83c-0.31,0.23-0.76,0.35-1.35,0.35c-0.58,0-0.99-0.11-1.25-0.34
				c-0.26-0.22-0.45-0.51-0.58-0.84l-7.1-19.86h3.82l5.21,16.21l5.27-16.21h3.75L92.04,29.25z"/>
		</g>
		<g>
			<path class="st42" d="M117.96,19.85c0,0.3-0.01,0.59-0.04,0.88c-0.03,0.29-0.06,0.57-0.1,0.84h-0.06v0.02h-15.62
				c0.16,0.82,0.44,1.57,0.82,2.27c0.38,0.7,0.84,1.3,1.38,1.81c0.54,0.51,1.14,0.91,1.81,1.2c0.67,0.29,1.37,0.43,2.11,0.43
				c0.9,0,1.74-0.21,2.54-0.63c0.79-0.42,1.47-1,2.04-1.74l2.64,2c-0.9,1.09-1.97,1.95-3.2,2.58c-1.23,0.63-2.57,0.94-4.02,0.94
				c-1.35,0-2.61-0.28-3.79-0.83c-1.18-0.55-2.21-1.31-3.09-2.27c-0.88-0.96-1.57-2.09-2.08-3.37c-0.5-1.29-0.76-2.66-0.76-4.12
				c0-1.46,0.25-2.83,0.76-4.12c0.5-1.29,1.2-2.41,2.08-3.37c0.88-0.96,1.91-1.72,3.09-2.27c1.18-0.55,2.44-0.83,3.79-0.83
				c1.34,0,2.59,0.28,3.77,0.83c1.18,0.55,2.21,1.31,3.09,2.27c0.88,0.96,1.57,2.09,2.09,3.37
				C117.71,17.02,117.96,18.4,117.96,19.85z M108.25,12.41c-0.74,0-1.44,0.14-2.11,0.43c-0.67,0.29-1.27,0.69-1.81,1.2
				c-0.54,0.51-1,1.11-1.38,1.81c-0.38,0.7-0.65,1.45-0.82,2.27h12.21c-0.16-0.82-0.43-1.57-0.81-2.27c-0.38-0.7-0.83-1.3-1.37-1.81
				c-0.54-0.51-1.14-0.91-1.81-1.2C109.69,12.55,108.99,12.41,108.25,12.41z"/>
		</g>
		<g>
			<path class="st42" d="M134.66,30.14V18.75c0-1.38-0.08-3.18-0.88-4.4c-0.96-1.47-2.64-2.14-4.36-2.14c-3.85,0-5.4,3.06-5.4,6.53
				v11.39h-3.98V9.2h3.64v2.22c1.51-2.01,3.77-2.76,6.2-2.76c5.15,0,8.71,3.43,8.71,8.63v12.86H134.66z"/>
		</g>
		<g>
			<path class="st42" d="M160.12,19.85c0,0.3-0.01,0.59-0.04,0.88c-0.03,0.29-0.06,0.57-0.1,0.84h-0.06v0.02h-15.62
				c0.16,0.82,0.44,1.57,0.82,2.27c0.38,0.7,0.84,1.3,1.38,1.81c0.54,0.51,1.14,0.91,1.81,1.2c0.67,0.29,1.37,0.43,2.11,0.43
				c0.9,0,1.74-0.21,2.54-0.63c0.79-0.42,1.47-1,2.04-1.74l2.64,2c-0.9,1.09-1.97,1.95-3.2,2.58c-1.23,0.63-2.57,0.94-4.02,0.94
				c-1.35,0-2.61-0.28-3.79-0.83c-1.18-0.55-2.21-1.31-3.09-2.27c-0.88-0.96-1.57-2.09-2.08-3.37c-0.5-1.29-0.76-2.66-0.76-4.12
				c0-1.46,0.25-2.83,0.76-4.12c0.5-1.29,1.2-2.41,2.08-3.37c0.88-0.96,1.91-1.72,3.09-2.27c1.18-0.55,2.44-0.83,3.79-0.83
				c1.34,0,2.59,0.28,3.77,0.83c1.18,0.55,2.21,1.31,3.09,2.27c0.88,0.96,1.57,2.09,2.09,3.37
				C159.87,17.02,160.12,18.39,160.12,19.85z M150.41,12.41c-0.74,0-1.44,0.14-2.11,0.43c-0.67,0.29-1.27,0.69-1.81,1.2
				c-0.54,0.51-1,1.11-1.38,1.81c-0.38,0.7-0.65,1.45-0.82,2.27h12.21c-0.16-0.82-0.43-1.57-0.81-2.27c-0.38-0.7-0.83-1.3-1.37-1.81
				c-0.54-0.51-1.14-0.91-1.81-1.2C151.85,12.55,151.14,12.41,150.41,12.41z"/>
		</g>
		<g>
			<path class="st42" d="M161.19,9.12h2.12V2.34h3.8v6.78h5.01v3.8h-5.01v9.84c0,1.38,0.19,2.37,0.58,2.98
				c0.39,0.6,1.2,0.91,2.44,0.91h2.25v3.8h-2.25c-1.41,0-2.55-0.18-3.43-0.54c-0.88-0.36-1.57-0.87-2.07-1.53
				c-0.5-0.66-0.85-1.47-1.04-2.42c-0.19-0.95-0.28-2.01-0.28-3.19v-9.84h-2.12V9.12z"/>
		</g>
	</g>
</g>
</svg>
